<?xml version="1.0" encoding="UTF-8"?>
<svg width="15px" height="16px" viewBox="0 0 15 16" version="1.1" xmlns="http://www.w3.org/2000/svg" xmlns:xlink="http://www.w3.org/1999/xlink">
    <!-- Generator: Sketch 61.2 (89653) - https://sketch.com -->
    <title>Icon_Search</title>
    <desc>Created with Sketch.</desc>
    <g id="WGT_Add-To-Collection-(MVP)" stroke="none" stroke-width="1" fill="none" fill-rule="evenodd">
        <g id="MVP_PLP_00" transform="translate(-288.000000, -112.000000)" fill="#53535F" fill-rule="nonzero">
            <g id="Content" transform="translate(240.000000, -0.000000)">
                <g id="Header">
                    <g id="Bar-Search" transform="translate(40.000000, 104.000000)">
                        <path d="M14.6381988,8.5 C18.3043747,8.5 21.2763975,11.4720228 21.2763975,15.1381988 C21.2763975,16.5927913 20.8085458,17.9381112 20.0151122,19.0318886 L22.6930079,21.7107188 C23.1023307,22.1200416 23.1023307,22.7836851 22.6930079,23.1930079 C22.2836851,23.6023307 21.6200416,23.6023307 21.2107188,23.1930079 L18.5318886,20.5151122 C17.4381112,21.3085458 16.0927913,21.7763975 14.6381988,21.7763975 C10.9720228,21.7763975 8,18.8043747 8,15.1381988 C8,11.4720228 10.9720228,8.5 14.6381988,8.5 Z M14.6381988,10.2468944 C11.936806,10.2468944 9.74689441,12.436806 9.74689441,15.1381988 C9.74689441,17.8395916 11.936806,20.0295031 14.6381988,20.0295031 C17.3395916,20.0295031 19.5295031,17.8395916 19.5295031,15.1381988 C19.5295031,12.436806 17.3395916,10.2468944 14.6381988,10.2468944 Z" id="Icon_Search"></path>
                    </g>
                </g>
            </g>
        </g>
    </g>
</svg>
